<svg width="40" height="40" viewBox="0 0 40 40" fill="none" xmlns="http://www.w3.org/2000/svg">
<path d="M34.8334 3.33325H5.16671C4.68048 3.33325 4.21416 3.52641 3.87035 3.87022C3.52653 4.21404 3.33337 4.68035 3.33337 5.16659V34.8333C3.33337 35.074 3.38079 35.3124 3.47293 35.5348C3.56506 35.7573 3.7001 35.9594 3.87035 36.1296C4.04059 36.2999 4.24269 36.4349 4.46512 36.527C4.68755 36.6192 4.92595 36.6666 5.16671 36.6666H21.1334V23.7499H16.8V18.7499H21.1334V14.9999C21.0436 14.1195 21.1476 13.2301 21.4379 12.3941C21.7283 11.5582 22.198 10.7958 22.8141 10.1606C23.4303 9.52538 24.178 9.03265 25.0048 8.71698C25.8315 8.40131 26.7173 8.27034 27.6 8.33325C28.8973 8.32527 30.1938 8.39205 31.4834 8.53325V13.0333H28.8334C26.7334 13.0333 26.3334 14.0333 26.3334 15.4833V18.6999H31.3334L30.6834 23.6999H26.3334V36.6666H34.8334C35.0741 36.6666 35.3125 36.6192 35.535 36.527C35.7574 36.4349 35.9595 36.2999 36.1297 36.1296C36.3 35.9594 36.435 35.7573 36.5272 35.5348C36.6193 35.3124 36.6667 35.074 36.6667 34.8333V5.16659C36.6667 4.92583 36.6193 4.68743 36.5272 4.465C36.435 4.24257 36.3 4.04046 36.1297 3.87022C35.9595 3.69998 35.7574 3.56494 35.535 3.47281C35.3125 3.38067 35.0741 3.33325 34.8334 3.33325Z" fill="white"/>
</svg>
