<svg width="40" height="40" viewBox="0 0 40 40" fill="none" xmlns="http://www.w3.org/2000/svg">
<path d="M27.6667 23.3334C27.3334 23.1667 25.1667 22.1667 24.8334 22.0001C24.5 21.8334 24.1667 21.8334 23.8334 22.1667C23.5 22.5001 22.8334 23.5001 22.5 23.8334C22.3334 24.1667 22 24.1667 21.6667 24.0001C20.5 23.5001 19.3334 22.8334 18.3334 22.0001C17.5 21.1667 16.6667 20.1667 16 19.1667C15.8334 18.8334 16 18.5001 16.1667 18.3334C16.3334 18.1667 16.5 17.8334 16.8334 17.6667C17 17.5001 17.1667 17.1667 17.1667 17.0001C17.3334 16.8334 17.3334 16.5001 17.1667 16.3334C17 16.1667 16.1667 14.1667 15.8334 13.3334C15.6667 12.1667 15.3334 12.1667 15 12.1667H14.1667C13.8334 12.1667 13.3334 12.5001 13.1667 12.6667C12.1667 13.6667 11.6667 14.8334 11.6667 16.1667C11.8334 17.6667 12.3334 19.1667 13.3334 20.5001C15.1667 23.1667 17.5 25.3334 20.3334 26.6667C21.1667 27.0001 21.8334 27.3334 22.6667 27.5001C23.5 27.8334 24.3334 27.8334 25.3334 27.6667C26.5 27.5001 27.5 26.6667 28.1667 25.6667C28.5 25.0001 28.5 24.3334 28.3334 23.6667L27.6667 23.3334ZM31.8334 8.16675C25.3334 1.66675 14.8334 1.66675 8.33337 8.16675C3.00004 13.5001 2.00004 21.6667 5.66671 28.1667L3.33337 36.6667L12.1667 34.3334C14.6667 35.6667 17.3334 36.3334 20 36.3334C29.1667 36.3334 36.5 29.0001 36.5 19.8334C36.6667 15.5001 34.8334 11.3334 31.8334 8.16675ZM27.3334 31.5001C25.1667 32.8334 22.6667 33.6667 20 33.6667C17.5 33.6667 15.1667 33.0001 13 31.8334L12.5 31.5001L7.33337 32.8334L8.66671 27.8334L8.33337 27.3334C4.33337 20.6667 6.33337 12.3334 12.8334 8.16675C19.3334 4.00008 27.6667 6.16675 31.6667 12.5001C35.6667 19.0001 33.8334 27.5001 27.3334 31.5001Z" fill="white"/>
</svg>
