<svg width="35" height="36" viewBox="0 0 35 36" fill="none" xmlns="http://www.w3.org/2000/svg">
<path d="M17.48 0.758621C7.95727 0.758621 0.238647 8.47724 0.238647 18C0.238647 27.5228 7.95727 35.2414 17.48 35.2414C27.0028 35.2414 34.7214 27.5228 34.7214 18C34.7214 8.47724 27.0028 0.758621 17.48 0.758621ZM26.4455 19.3793H18.8593V26.9655C18.8593 27.3313 18.714 27.6822 18.4553 27.9408C18.1967 28.1995 17.8458 28.3448 17.48 28.3448C17.1142 28.3448 16.7634 28.1995 16.5047 27.9408C16.246 27.6822 16.1007 27.3313 16.1007 26.9655V19.3793H8.51451C8.14869 19.3793 7.79786 19.234 7.53919 18.9753C7.28052 18.7166 7.1352 18.3658 7.1352 18C7.1352 17.6342 7.28052 17.2833 7.53919 17.0247C7.79786 16.766 8.14869 16.6207 8.51451 16.6207H16.1007V9.03448C16.1007 8.66866 16.246 8.31783 16.5047 8.05916C16.7634 7.80049 17.1142 7.65517 17.48 7.65517C17.8458 7.65517 18.1967 7.80049 18.4553 8.05916C18.714 8.31783 18.8593 8.66866 18.8593 9.03448V16.6207H26.4455C26.8114 16.6207 27.1622 16.766 27.4209 17.0247C27.6795 17.2833 27.8248 17.6342 27.8248 18C27.8248 18.3658 27.6795 18.7166 27.4209 18.9753C27.1622 19.234 26.8114 19.3793 26.4455 19.3793Z" fill="black"/>
</svg>
