<svg width="35" height="36" viewBox="0 0 35 36" fill="none" xmlns="http://www.w3.org/2000/svg">
<g clip-path="url(#clip0_1_64)">
<path d="M17.24 35.24C13.831 35.239 10.4988 34.2274 7.66461 32.3329C4.83042 30.4385 2.6215 27.7464 1.31705 24.5968C0.0126056 21.4472 -0.328795 17.9816 0.336003 14.638C1.0008 11.2944 2.64195 8.223 5.05201 5.81196C8.28555 2.57842 12.6712 0.761841 17.2441 0.761841C21.817 0.761841 26.2026 2.57842 29.4362 5.81196C32.6697 9.0455 34.4863 13.4311 34.4863 18.004C34.4863 22.577 32.6697 26.9626 29.4362 30.1961C27.8379 31.8017 25.937 33.0742 23.8435 33.94C21.75 34.8058 19.5055 35.2477 17.24 35.24ZM17.24 2.78078C8.84839 2.78078 2.02083 9.60835 2.02083 18C2.02083 26.3916 8.84839 33.2192 17.24 33.2192C25.6317 33.2192 32.4593 26.3923 32.4593 18C32.4593 9.60767 25.6324 2.78078 17.24 2.78078Z" fill="black"/>
<path fill-rule="evenodd" clip-rule="evenodd" d="M17.24 35.24C26.7614 35.24 34.48 27.5214 34.48 18C34.48 8.47861 26.7614 0.759995 17.24 0.759995C7.71861 0.759995 0 8.47861 0 18C0 27.5214 7.71861 35.24 17.24 35.24ZM9.12523 19.0104H25.3548C25.6228 19.0104 25.8798 18.9039 26.0693 18.7144C26.2588 18.525 26.3652 18.268 26.3652 18C26.3652 17.732 26.2588 17.475 26.0693 17.2855C25.8798 17.0961 25.6228 16.9896 25.3548 16.9896H9.12523C8.85726 16.9896 8.60026 17.0961 8.41078 17.2855C8.22129 17.475 8.11484 17.732 8.11484 18C8.11484 18.268 8.22129 18.525 8.41078 18.7144C8.60026 18.9039 8.85726 19.0104 9.12523 19.0104Z" fill="black"/>
</g>
<defs>
<clipPath id="clip0_1_64">
<rect width="34.48" height="34.48" fill="white" transform="translate(0 0.759995)"/>
</clipPath>
</defs>
</svg>
